<svg width="16" height="16" viewBox="0 0 16 16" fill="none" xmlns="http://www.w3.org/2000/svg">
<path d="M6.66691 12.7002C5.48165 12.7002 4.32294 12.3491 3.33698 11.6913C2.35102 11.0335 1.58197 10.0983 1.12688 9.00393C0.671795 7.90951 0.551046 6.70482 0.779869 5.54185C1.00869 4.37889 1.57684 3.30975 2.41262 2.46932C3.2484 1.62889 4.31438 1.05484 5.47607 0.819582C6.63775 0.58432 7.84308 0.698383 8.94 1.1474C10.0369 1.59642 10.9763 2.36027 11.6396 3.34257C12.3028 4.32487 12.6603 5.48161 12.6669 6.66685C12.6713 7.45758 12.5194 8.24138 12.2198 8.97319C11.9202 9.70499 11.479 10.3704 10.9214 10.9311C10.3638 11.4917 9.70086 11.9367 8.97073 12.2403C8.24059 12.5439 7.45766 12.7002 6.66691 12.7002ZM6.66691 1.6402C5.66974 1.6336 4.69307 1.92334 3.86082 2.47268C3.02858 3.02201 2.37826 3.80618 1.99237 4.72569C1.60649 5.6452 1.50243 6.65861 1.6934 7.63735C1.88437 8.61609 2.36177 9.51605 3.06501 10.223C3.76826 10.93 4.66568 11.4122 5.64339 11.6084C6.6211 11.8046 7.63505 11.7059 8.5566 11.3249C9.47815 10.9439 10.2658 10.2978 10.8195 9.46849C11.3733 8.63918 11.6682 7.66405 11.6669 6.66685C11.6687 5.33777 11.1433 4.06224 10.206 3.11994C9.26871 2.17764 7.99599 1.64549 6.66691 1.6402V1.6402Z" fill="#666666"/>
<path d="M14.7857 15.2857C14.6531 15.2855 14.526 15.2328 14.4323 15.139L10.2123 10.919C10.124 10.8242 10.0759 10.6988 10.0782 10.5693C10.0805 10.4398 10.133 10.3162 10.2246 10.2246C10.3162 10.133 10.4398 10.0805 10.5693 10.0782C10.6988 10.0759 10.8242 10.124 10.919 10.2123L15.139 14.4323C15.2326 14.5261 15.2852 14.6532 15.2852 14.7857C15.2852 14.9182 15.2326 15.0452 15.139 15.139C15.0438 15.2304 14.9177 15.2828 14.7857 15.2857V15.2857Z" fill="#666666"/>
</svg>
