<svg width="24" height="24" viewBox="0 0 24 24" fill="none" xmlns="http://www.w3.org/2000/svg">
<g opacity="0.7">
<path fill-rule="evenodd" clip-rule="evenodd" d="M12 22C11.8019 21.9974 11.6126 21.9176 11.4725 21.7775C11.3324 21.6374 11.2526 21.4481 11.25 21.25V2.75C11.25 2.55109 11.329 2.36032 11.4697 2.21967C11.6103 2.07902 11.8011 2 12 2C12.1989 2 12.3897 2.07902 12.5303 2.21967C12.671 2.36032 12.75 2.55109 12.75 2.75V21.25C12.7474 21.4481 12.6676 21.6374 12.5275 21.7775C12.3874 21.9176 12.1981 21.9974 12 22Z" fill="black"/>
<path fill-rule="evenodd" clip-rule="evenodd" d="M4.46934 9.53023C4.32889 9.38961 4.25 9.19898 4.25 9.00023C4.25 8.80148 4.32889 8.61086 4.46934 8.47023L10.2993 2.72023C10.7475 2.28349 11.3486 2.03906 11.9743 2.03906C12.6001 2.03906 13.2012 2.28349 13.6493 2.72023L19.5193 8.46023C19.6136 8.5184 19.6938 8.59672 19.7542 8.68956C19.8145 8.7824 19.8536 8.88746 19.8686 8.99719C19.8835 9.10693 19.874 9.21861 19.8406 9.32422C19.8073 9.42983 19.751 9.52675 19.6757 9.60801C19.6005 9.68927 19.5082 9.75286 19.4055 9.79421C19.3027 9.83556 19.1921 9.85365 19.0815 9.84717C18.971 9.84069 18.8632 9.80981 18.766 9.75674C18.6688 9.70367 18.5846 9.62973 18.5193 9.54023L12.6093 3.80023C12.4399 3.63766 12.2142 3.54689 11.9793 3.54689C11.7445 3.54689 11.5188 3.63766 11.3493 3.80023L5.52934 9.53023C5.38871 9.67068 5.19809 9.74957 4.99934 9.74957C4.80059 9.74957 4.60997 9.67068 4.46934 9.53023Z" fill="black"/>
</g>
</svg>
