<svg width="16" height="16" viewBox="0 0 16 16" fill="none" xmlns="http://www.w3.org/2000/svg">
<path d="M14.172 4.33208H1.82536C1.69446 4.32864 1.56997 4.27466 1.47799 4.18144C1.38602 4.08822 1.33371 3.96302 1.33203 3.83208C1.33203 3.69947 1.38471 3.57229 1.47848 3.47852C1.57225 3.38475 1.69942 3.33208 1.83203 3.33208H14.172C14.2379 3.33118 14.3034 3.3435 14.3644 3.36831C14.4255 3.39312 14.481 3.42992 14.5276 3.47653C14.5742 3.52314 14.611 3.57861 14.6358 3.63968C14.6606 3.70075 14.6729 3.76617 14.672 3.83208C14.672 3.96469 14.6194 4.09186 14.5256 4.18563C14.4318 4.2794 14.3046 4.33208 14.172 4.33208Z" fill="black" fill-opacity="0.7"/>
<path d="M14.172 8.49843H1.82536C1.69446 8.495 1.56997 8.44101 1.47799 8.34779C1.38602 8.25458 1.33371 8.12937 1.33203 7.99843C1.33547 7.86929 1.38875 7.7465 1.48071 7.65577C1.57268 7.56505 1.69619 7.51344 1.82536 7.51176H14.172C14.2379 7.51087 14.3034 7.52319 14.3644 7.548C14.4255 7.57281 14.481 7.6096 14.5276 7.65621C14.5742 7.70282 14.611 7.7583 14.6358 7.81937C14.6606 7.88043 14.6729 7.94586 14.672 8.01176C14.6686 8.14205 14.6143 8.26583 14.521 8.35673C14.4276 8.44763 14.3024 8.49848 14.172 8.49843Z" fill="black" fill-opacity="0.7"/>
<path d="M14.172 12.6664H1.82536C1.6967 12.6631 1.57411 12.6109 1.48249 12.5206C1.39086 12.4302 1.33707 12.3083 1.33203 12.1797C1.33203 12.0471 1.38471 11.9199 1.47848 11.8261C1.57225 11.7324 1.69942 11.6797 1.83203 11.6797H14.172C14.2374 11.6797 14.3021 11.6927 14.3624 11.7179C14.4227 11.7431 14.4774 11.78 14.5232 11.8265C14.5691 11.873 14.6053 11.9282 14.6297 11.9888C14.6541 12.0495 14.6662 12.1143 14.6654 12.1797C14.6619 12.3088 14.6086 12.4316 14.5167 12.5223C14.4247 12.6131 14.3012 12.6647 14.172 12.6664Z" fill="black" fill-opacity="0.7"/>
</svg>
