<svg width="16" height="16" viewBox="0 0 16 16" fill="none" xmlns="http://www.w3.org/2000/svg">
<path d="M13.6874 14.1869C13.6217 14.1872 13.5566 14.1744 13.4959 14.1492C13.4352 14.124 13.3802 14.087 13.3341 14.0402L2.00072 2.7069C1.90709 2.61315 1.85449 2.48606 1.85449 2.35356C1.85449 2.22106 1.90709 2.09398 2.00072 2.00023C2.09447 1.9066 2.22155 1.854 2.35405 1.854C2.48655 1.854 2.61363 1.9066 2.70738 2.00023L14.0407 13.3336C14.0879 13.3795 14.1254 13.4345 14.151 13.4952C14.1766 13.5558 14.1898 13.621 14.1898 13.6869C14.1898 13.7528 14.1766 13.818 14.151 13.8786C14.1254 13.9393 14.0879 13.9943 14.0407 14.0402C13.9953 14.0879 13.9404 14.1256 13.8795 14.1509C13.8187 14.1761 13.7532 14.1884 13.6874 14.1869V14.1869Z" fill="black" fill-opacity="0.7"/>
<path d="M2.31401 14.1873C2.24832 14.1877 2.18323 14.1748 2.12255 14.1497C2.06188 14.1245 2.00684 14.0874 1.96068 14.0407C1.86705 13.9469 1.81445 13.8198 1.81445 13.6873C1.81445 13.5548 1.86705 13.4278 1.96068 13.334L13.334 1.96068C13.4278 1.86704 13.5548 1.81445 13.6873 1.81445C13.8198 1.81445 13.9469 1.86704 14.0407 1.96068C14.0879 2.00664 14.1253 2.06158 14.1509 2.12227C14.1765 2.18295 14.1897 2.24815 14.1897 2.31401C14.1897 2.37987 14.1765 2.44507 14.1509 2.50575C14.1253 2.56644 14.0879 2.62138 14.0407 2.66734L2.66735 14.0407C2.6219 14.0884 2.567 14.126 2.50616 14.1513C2.44531 14.1766 2.37987 14.1888 2.31401 14.1873Z" fill="black" fill-opacity="0.7"/>
</svg>
