<svg width="16" height="16" viewBox="0 0 16 16" fill="none" xmlns="http://www.w3.org/2000/svg">
<path d="M8.00032 15.3468C6.54993 15.3468 5.13211 14.9168 3.92615 14.111C2.72019 13.3052 1.78026 12.1599 1.22522 10.8199C0.670176 9.47987 0.524943 8.00537 0.807901 6.58284C1.09086 5.16032 1.78929 3.85365 2.81488 2.82806C3.84046 1.80248 5.14713 1.10404 6.56966 0.821085C7.99219 0.538126 9.46669 0.68336 10.8067 1.2384C12.1467 1.79344 13.292 2.73337 14.0978 3.93933C14.9036 5.14529 15.3337 6.56311 15.3337 8.01351C15.3337 9.95843 14.561 11.8237 13.1858 13.199C11.8105 14.5742 9.94524 15.3468 8.00032 15.3468ZM8.00032 1.68017C6.74771 1.68017 5.52322 2.05162 4.48171 2.74754C3.4402 3.44345 2.62844 4.43258 2.14909 5.58984C1.66973 6.74711 1.54432 8.02054 1.7887 9.24908C2.03307 10.4776 2.63626 11.6061 3.52199 12.4919C4.40772 13.3776 5.5362 13.9808 6.76475 14.2252C7.9933 14.4695 9.26672 14.3441 10.424 13.8647C11.5813 13.3854 12.5704 12.5736 13.2663 11.5321C13.9622 10.4906 14.3337 9.26612 14.3337 8.01351C14.3319 6.33435 13.6641 4.72446 12.4767 3.53711C11.2894 2.34976 9.67949 1.68194 8.00032 1.68017Z" fill="#666"/>
<path d="M8.00033 15.3468C6.10033 15.3468 4.66699 12.1935 4.66699 8.01351C4.66699 3.83351 6.10699 0.680176 8.00033 0.680176C9.89366 0.680176 11.3337 3.83351 11.3337 8.01351C11.3337 12.1935 9.90699 15.3468 8.00033 15.3468ZM8.00033 1.68018C6.89366 1.68018 5.66032 4.28018 5.66032 8.01351C5.66032 11.7468 6.89366 14.3468 8.00033 14.3468C9.10699 14.3468 10.3403 11.7468 10.3403 8.01351C10.3403 4.28018 9.10699 1.68018 8.00033 1.68018Z" fill="#666"/>
<path d="M14.4799 5.3335H1.5332V6.3335H14.4799V5.3335Z" fill="#666"/>
<path d="M14.4811 9.6665H1.50781V10.6665H14.4811V9.6665Z" fill="#666"/>
</svg>
